# This file uses centimeters as units for non-parametric coordinates.

mtllib moontest-03.mtl
g default
v 7.112187 0.859266 -0.180844
v 7.112187 0.859266 0.180844
v 6.526964 0.859266 0.180844
v 6.526964 0.859266 -0.180844
v 6.819576 0.678422 0.292612
v 6.819576 1.040110 0.292612
v 6.819576 1.040110 -0.292612
v 6.819576 0.678422 -0.292612
v 6.638732 0.566655 -0.000000
v 7.000420 0.566655 0.000000
v 7.000420 1.151878 -0.000000
v 6.638732 1.151878 0.000000
v 7.091302 0.691330 0.103790
v 7.091302 0.691330 -0.103790
v 7.155448 0.859266 0.000000
v 7.091302 1.027202 -0.103790
v 7.091302 1.027202 0.103790
v 6.987512 0.755476 -0.271726
v 6.819576 0.859266 -0.335872
v 6.987512 0.963057 -0.271726
v 6.923366 1.130993 -0.167936
v 6.923366 0.587540 -0.167936
v 6.987512 0.755476 0.271726
v 6.987512 0.963057 0.271726
v 6.819576 0.859266 0.335872
v 6.923366 0.587540 0.167936
v 6.923366 1.130993 0.167936
v 6.547850 0.691330 -0.103790
v 6.547850 0.691330 0.103790
v 6.483704 0.859266 0.000000
v 6.547850 1.027202 0.103790
v 6.547850 1.027202 -0.103790
v 6.651640 0.963057 0.271726
v 6.651640 0.755476 0.271726
v 6.715786 0.587540 0.167936
v 6.715786 1.130993 0.167936
v 6.651640 0.755476 -0.271726
v 6.651640 0.963057 -0.271726
v 6.715786 1.130993 -0.167936
v 6.715786 0.587540 -0.167936
v 6.819576 0.523394 0.000000
v 6.819576 1.195138 0.000000
v 7.132612 0.739697 0.000000
v 7.132612 0.978836 0.000000
v 6.939145 0.859266 -0.313036
v 7.013043 1.052734 -0.193467
v 7.013043 0.665799 -0.193467
v 6.939145 0.859266 0.313036
v 7.013043 0.665799 0.193467
v 7.013043 1.052734 0.193467
v 6.506539 0.739697 0.000000
v 6.506539 0.978836 0.000000
v 6.700006 0.859266 0.313036
v 6.626109 0.665799 0.193467
v 6.626109 1.052734 0.193467
v 6.700006 0.859266 -0.313036
v 6.626109 1.052734 -0.193467
v 6.626109 0.665799 -0.193467
v 6.819576 0.546230 0.119569
v 6.819576 1.172303 0.119569
v 6.819576 1.172303 -0.119569
v 6.819576 0.546230 -0.119569
vt 0.181818 0.250000
vt 0.363636 0.250000
vt 0.545455 0.250000
vt 0.727273 0.250000
vt 0.909091 0.250000
vt 0.090909 0.416667
vt 0.272727 0.416667
vt 0.454545 0.416667
vt 0.636364 0.416667
vt 0.818182 0.416667
vt 1.000000 0.416667
vt 0.000000 0.583333
vt 0.181818 0.583333
vt 0.363636 0.583333
vt 0.545455 0.583333
vt 0.727273 0.583333
vt 0.909091 0.583333
vt 0.090909 0.750000
vt 0.272727 0.750000
vt 0.454545 0.750000
vt 0.636364 0.750000
vt 0.818182 0.750000
vt 0.818182 0.638889
vt 0.818182 0.527778
vt 0.636364 0.527778
vt 0.727273 0.472222
vt 0.636364 0.638889
vt 0.090909 0.527778
vt 0.090909 0.638889
vt 0.909091 0.472222
vt 0.363636 0.472222
vt 0.363636 0.361111
vt 0.181818 0.472222
vt 0.272727 0.527778
vt 0.181818 0.361111
vt 0.545455 0.472222
vt 0.545455 0.361111
vt 0.454545 0.527778
vt 0.272727 0.638889
vt 0.909091 0.361111
vt 0.727273 0.361111
vt 0.454545 0.638889
vt 0.863636 0.666667
vt 0.772727 0.666667
vt 0.818182 0.583333
vt 0.772727 0.500000
vt 0.863636 0.500000
vt 0.636364 0.583333
vt 0.590909 0.500000
vt 0.681818 0.500000
vt 0.727273 0.416667
vt 0.681818 0.666667
vt 0.590909 0.666667
vt 0.090909 0.583333
vt 0.045455 0.500000
vt 0.136364 0.500000
vt 0.045455 0.666667
vt 0.136364 0.666667
vt 0.909091 0.416667
vt 0.954545 0.500000
vt 0.409091 0.500000
vt 0.318182 0.500000
vt 0.363636 0.416667
vt 0.318182 0.333333
vt 0.409091 0.333333
vt 0.181818 0.416667
vt 0.227273 0.500000
vt 0.272727 0.583333
vt 0.136364 0.333333
vt 0.227273 0.333333
vt 0.500000 0.500000
vt 0.545455 0.416667
vt 0.500000 0.333333
vt 0.590909 0.333333
vt 0.454545 0.583333
vt 0.318182 0.666667
vt 0.227273 0.666667
vt 0.863636 0.333333
vt 0.954545 0.333333
vt 0.681818 0.333333
vt 0.772727 0.333333
vt 0.500000 0.666667
vt 0.409091 0.666667
vn 0.809017 -0.500000 0.309017
vn 0.525731 -0.850651 -0.000000
vn 0.809017 -0.500000 -0.309017
vn 0.934172 -0.356823 -0.000000
vn 0.850651 -0.000000 -0.525731
vn 1.000000 -0.000000 -0.000000
vn 0.850651 0.000000 0.525731
vn 0.809017 0.500000 -0.309017
vn 0.525731 0.850651 0.000000
vn 0.809017 0.500000 0.309017
vn 0.934172 0.356823 0.000000
vn 0.500000 -0.309017 -0.809017
vn -0.000000 -0.525731 -0.850651
vn -0.000000 0.000000 -1.000000
vn 0.356823 0.000000 -0.934172
vn 0.000000 0.525731 -0.850651
vn 0.500000 0.309016 -0.809017
vn 0.309017 0.809017 -0.500000
vn 0.577351 0.577349 -0.577351
vn 0.309017 -0.809017 -0.500000
vn 0.577351 -0.577349 -0.577350
vn 0.500000 -0.309016 0.809017
vn 0.500000 0.309016 0.809017
vn 0.356823 0.000000 0.934172
vn -0.000000 0.525731 0.850651
vn -0.000000 -0.000000 1.000000
vn 0.000000 -0.525732 0.850651
vn 0.577351 -0.577349 0.577351
vn 0.309017 -0.809017 0.500000
vn 0.309017 0.809017 0.499999
vn 0.577351 0.577349 0.577351
vn -0.809018 -0.499999 -0.309017
vn -0.525731 -0.850651 0.000000
vn -0.809017 -0.499999 0.309017
vn -0.934173 -0.356822 0.000000
vn -0.850651 0.000000 0.525731
vn -1.000000 0.000000 0.000000
vn -0.850651 0.000000 -0.525731
vn -0.809018 0.499999 0.309017
vn -0.525731 0.850651 -0.000000
vn -0.809018 0.499999 -0.309017
vn -0.934173 0.356822 0.000000
vn -0.500000 0.309016 0.809017
vn -0.356823 -0.000000 0.934172
vn -0.500000 -0.309016 0.809017
vn -0.309017 -0.809017 0.499999
vn -0.577351 -0.577349 0.577351
vn -0.309017 0.809017 0.500000
vn -0.577351 0.577349 0.577351
vn -0.500000 -0.309016 -0.809017
vn -0.356823 0.000000 -0.934172
vn -0.500000 0.309016 -0.809017
vn -0.309017 0.809017 -0.499999
vn -0.577351 0.577349 -0.577351
vn -0.309017 -0.809017 -0.500000
vn -0.577351 -0.577349 -0.577351
vn 0.000000 -1.000000 0.000000
vn 0.000000 -0.934173 0.356821
vn 0.000000 1.000000 0.000000
vn 0.000000 0.934173 0.356821
vn 0.000000 0.934173 -0.356821
vn 0.000000 -0.934173 -0.356822
s 1
g pSolid3
usemtl initialShadingGroup
f 13/43/1 10/22/2 14/44/3 43/23/4
f 14/44/3 1/16/5 15/45/6 43/23/4
f 15/45/6 2/17/7 13/43/1 43/23/4
f 16/46/8 11/10/9 17/47/10 44/24/11
f 17/47/10 2/17/7 15/45/6 44/24/11
f 15/45/6 1/16/5 16/46/8 44/24/11
f 18/48/12 8/15/13 19/49/14 45/25/15
f 19/49/14 7/9/16 20/50/17 45/25/15
f 20/50/17 1/16/5 18/48/12 45/25/15
f 20/50/17 7/9/16 21/51/18 46/26/19
f 21/51/18 11/10/9 16/46/8 46/26/19
f 16/46/8 1/16/5 20/50/17 46/26/19
f 14/52/3 10/21/2 22/53/20 47/27/21
f 22/53/20 8/15/13 18/48/12 47/27/21
f 18/48/12 1/16/5 14/52/3 47/27/21
f 23/54/22 2/12/7 24/55/23 48/28/24
f 24/55/23 6/6/25 25/56/26 48/28/24
f 25/56/26 5/13/27 23/54/22 48/28/24
f 13/57/1 2/12/7 23/54/22 49/29/28
f 23/54/22 5/13/27 26/58/29 49/29/28
f 26/58/29 10/18/2 13/57/1 49/29/28
f 17/47/10 11/10/9 27/59/30 50/30/31
f 27/59/30 6/11/25 24/60/23 50/30/31
f 24/60/23 2/17/7 17/47/10 50/30/31
f 28/61/32 9/14/33 29/62/34 51/31/35
f 29/62/34 3/7/36 30/63/37 51/31/35
f 30/63/37 4/8/38 28/61/32 51/31/35
f 31/64/39 12/2/40 32/65/41 52/32/42
f 32/65/41 4/8/38 30/63/37 52/32/42
f 30/63/37 3/7/36 31/64/39 52/32/42
f 25/56/26 6/6/25 33/66/43 53/33/44
f 33/66/43 3/7/36 34/67/45 53/33/44
f 34/67/45 5/13/27 25/56/26 53/33/44
f 29/62/34 9/14/33 35/68/46 54/34/47
f 35/68/46 5/13/27 34/67/45 54/34/47
f 34/67/45 3/7/36 29/62/34 54/34/47
f 36/69/48 12/1/40 31/70/39 55/35/49
f 31/70/39 3/7/36 33/66/43 55/35/49
f 33/66/43 6/6/25 36/69/48 55/35/49
f 19/49/14 8/15/13 37/71/50 56/36/51
f 37/71/50 4/8/38 38/72/52 56/36/51
f 38/72/52 7/9/16 19/49/14 56/36/51
f 32/73/41 12/3/40 39/74/53 57/37/54
f 39/74/53 7/9/16 38/72/52 57/37/54
f 38/72/52 4/8/38 32/73/41 57/37/54
f 37/71/50 8/15/13 40/75/55 58/38/56
f 40/75/55 9/14/33 28/61/32 58/38/56
f 28/61/32 4/8/38 37/71/50 58/38/56
f 35/68/46 9/14/33 41/76/57 59/39/58
f 41/76/57 10/19/2 26/77/29 59/39/58
f 26/77/29 5/13/27 35/68/46 59/39/58
f 27/59/30 11/10/9 42/78/59 60/40/60
f 42/78/59 12/5/40 36/79/48 60/40/60
f 36/79/48 6/11/25 27/59/30 60/40/60
f 39/80/53 12/4/40 42/81/59 61/41/61
f 42/81/59 11/10/9 21/51/18 61/41/61
f 21/51/18 7/9/16 39/80/53 61/41/61
f 22/82/20 10/20/2 41/83/57 62/42/62
f 41/83/57 9/14/33 40/75/55 62/42/62
f 40/75/55 8/15/13 22/82/20 62/42/62
