# This file uses centimeters as units for non-parametric coordinates.

mtllib moon-02.mtl
g default
v 0.693628 5.983095 -0.015313
v 0.693628 5.983095 0.342057
v 0.115391 5.983095 0.342057
v 0.115391 5.983095 -0.015313
v 0.404510 5.804410 0.452490
v 0.404510 6.161781 0.452490
v 0.404510 6.161781 -0.125747
v 0.404510 5.804410 -0.125747
v 0.225824 5.693977 0.163372
v 0.583195 5.693977 0.163372
v 0.583195 6.272214 0.163372
v 0.225824 6.272214 0.163372
v 0.672992 5.817164 0.265923
v 0.672992 5.817164 0.060820
v 0.736372 5.983095 0.163372
v 0.672992 6.149027 0.060820
v 0.672992 6.149027 0.265923
v 0.570441 5.880544 -0.105111
v 0.404510 5.983095 -0.168491
v 0.570441 6.085647 -0.105111
v 0.507061 6.251578 -0.002560
v 0.507061 5.714612 -0.002560
v 0.570441 5.880544 0.431855
v 0.570441 6.085647 0.431855
v 0.404510 5.983095 0.495235
v 0.507061 5.714612 0.329303
v 0.507061 6.251578 0.329303
v 0.136027 5.817164 0.060820
v 0.136027 5.817164 0.265923
v 0.072647 5.983095 0.163372
v 0.136027 6.149027 0.265923
v 0.136027 6.149027 0.060820
v 0.238578 6.085647 0.431855
v 0.238578 5.880544 0.431855
v 0.301958 5.714612 0.329303
v 0.301958 6.251578 0.329303
v 0.238578 5.880544 -0.105111
v 0.238578 6.085647 -0.105111
v 0.301958 6.251578 -0.002560
v 0.301958 5.714612 -0.002560
v 0.404510 5.651232 0.163372
v 0.404510 6.314959 0.163372
v 0.713809 5.864954 0.163372
v 0.713809 6.101237 0.163372
v 0.522652 5.983095 -0.145928
v 0.595667 6.174253 -0.027786
v 0.595667 5.791938 -0.027786
v 0.522652 5.983095 0.472672
v 0.595667 5.791938 0.354530
v 0.595667 6.174253 0.354530
v 0.095210 5.864954 0.163372
v 0.095210 6.101237 0.163372
v 0.286367 5.983095 0.472672
v 0.213352 5.791938 0.354530
v 0.213352 6.174253 0.354530
v 0.286367 5.983095 -0.145928
v 0.213352 6.174253 -0.027786
v 0.213352 5.791938 -0.027786
v 0.404510 5.673796 0.281514
v 0.404510 6.292396 0.281514
v 0.404510 6.292396 0.045230
v 0.404510 5.673796 0.045230
vt 0.561170 0.462008
vt 0.564105 0.480019
vt 0.545859 0.480340
vt 0.548532 0.467013
vt 0.500398 0.507681
vt 0.493746 0.479203
vt 0.473175 0.458417
vt 0.482241 0.499570
vt 0.464245 0.495506
vt 0.470380 0.478106
vt 0.481963 0.485715
vt 0.537569 0.504115
vt 0.556357 0.516220
vt 0.544323 0.530629
vt 0.487212 0.535774
vt 0.464276 0.531997
vt 0.483722 0.523462
vt 0.466001 0.513610
vt 0.477223 0.512184
vt 0.558208 0.497781
vt 0.547354 0.494005
vt 0.583088 0.449615
vt 0.450941 0.464138
vt 0.442374 0.454631
vt 0.433367 0.476059
vt 0.424112 0.459310
vt 0.598346 0.465946
vt 0.574882 0.461044
vt 0.580532 0.471052
vt 0.449852 0.484384
vt 0.457031 0.475642
vt 0.593533 0.520158
vt 0.590598 0.502146
vt 0.608844 0.501825
vt 0.606171 0.515152
vt 0.627680 0.501314
vt 0.403897 0.528850
vt 0.424467 0.549637
vt 0.415403 0.508484
vt 0.433399 0.512550
vt 0.427263 0.529948
vt 0.415680 0.522339
vt 0.413922 0.484593
vt 0.410432 0.472281
vt 0.617134 0.478051
vt 0.596495 0.484385
vt 0.607349 0.488161
vt 0.431643 0.494446
vt 0.420421 0.495871
vt 0.571616 0.532551
vt 0.455267 0.553425
vt 0.446702 0.543918
vt 0.447792 0.523671
vt 0.440612 0.532413
vt 0.574171 0.511114
vt 0.579821 0.521121
vt 0.577351 0.491083
vt 0.584772 0.482198
vt 0.448822 0.504028
vt 0.443456 0.494316
vt 0.454188 0.513739
vt 0.569931 0.499968
vt 0.557954 0.538574
vt 0.445493 0.564673
vt 0.473531 0.548746
vt 0.620627 0.463534
vt 0.395708 0.474569
vt 0.610381 0.451537
vt 0.596750 0.443592
vt 0.452147 0.443382
vt 0.534077 0.518632
vt 0.501937 0.533486
vt 0.596386 0.538783
vt 0.397246 0.500372
vt 0.616396 0.523692
vt 0.558318 0.443382
vt 0.527023 0.480852
vt 0.538307 0.458473
vn 0.809017 -0.500001 0.309016
vn 0.525732 -0.850651 -0.000000
vn 0.809017 -0.500000 -0.309016
vn 0.934172 -0.356823 -0.000000
vn 0.850651 -0.000000 -0.525731
vn 1.000000 0.000000 -0.000000
vn 0.850651 -0.000000 0.525731
vn 0.809018 0.499999 -0.309016
vn 0.525732 0.850650 -0.000000
vn 0.809018 0.499999 0.309017
vn 0.934173 0.356822 0.000000
vn 0.500000 -0.309017 -0.809017
vn -0.000000 -0.525731 -0.850651
vn 0.000000 0.000000 -1.000000
vn 0.356822 -0.000000 -0.934173
vn 0.000000 0.525731 -0.850651
vn 0.500000 0.309017 -0.809017
vn 0.309017 0.809016 -0.500001
vn 0.577350 0.577350 -0.577351
vn 0.309018 -0.809017 -0.500000
vn 0.577350 -0.577350 -0.577351
vn 0.499999 -0.309017 0.809017
vn 0.500000 0.309017 0.809017
vn 0.356822 -0.000000 0.934172
vn -0.000000 0.525731 0.850651
vn 0.000000 0.000000 1.000000
vn 0.000000 -0.525731 0.850651
vn 0.577350 -0.577350 0.577351
vn 0.309018 -0.809017 0.500000
vn 0.309017 0.809016 0.500001
vn 0.577350 0.577350 0.577351
vn -0.809017 -0.500001 -0.309017
vn -0.525732 -0.850651 0.000000
vn -0.809017 -0.500001 0.309016
vn -0.934172 -0.356823 0.000000
vn -0.850651 -0.000000 0.525731
vn -1.000000 0.000000 0.000000
vn -0.850651 -0.000000 -0.525731
vn -0.809018 0.499999 0.309016
vn -0.525732 0.850651 0.000000
vn -0.809018 0.499999 -0.309016
vn -0.934173 0.356822 0.000000
vn -0.500000 0.309017 0.809017
vn -0.356822 -0.000000 0.934173
vn -0.500000 -0.309017 0.809017
vn -0.309018 -0.809017 0.500000
vn -0.577350 -0.577350 0.577351
vn -0.309017 0.809016 0.500001
vn -0.577350 0.577350 0.577351
vn -0.500000 -0.309017 -0.809017
vn -0.356822 -0.000000 -0.934172
vn -0.500000 0.309017 -0.809017
vn -0.309017 0.809016 -0.500001
vn -0.577350 0.577350 -0.577351
vn -0.309018 -0.809017 -0.500000
vn -0.577350 -0.577350 -0.577351
vn -0.000000 -1.000000 -0.000000
vn -0.000000 -0.934172 0.356823
vn 0.000000 1.000000 0.000000
vn 0.000000 0.934172 0.356824
vn -0.000000 0.934172 -0.356824
vn 0.000000 -0.934172 -0.356823
s 1
g Moon1
usemtl initialShadingGroup
f 13/1/1 10/2/2 14/3/3 43/4/4
f 14/3/3 1/77/5 15/78/6 43/4/4
f 15/78/6 2/76/7 13/1/1 43/4/4
f 16/8/8 11/9/9 17/10/10 44/11/11
f 17/10/10 2/7/7 15/6/6 44/11/11
f 15/6/6 1/5/5 16/8/8 44/11/11
f 18/12/12 8/13/13 19/14/14 45/71/15
f 19/65/14 7/16/16 20/17/17 45/15/15
f 20/17/17 1/5/5 18/72/12 45/15/15
f 20/17/17 7/16/16 21/18/18 46/19/19
f 21/18/18 11/9/9 16/8/8 46/19/19
f 16/8/8 1/5/5 20/17/17 46/19/19
f 14/3/3 10/2/2 22/20/20 47/21/21
f 22/20/20 8/13/13 18/12/12 47/21/21
f 18/12/12 1/77/5 14/3/3 47/21/21
f 23/70/22 2/7/7 24/23/23 48/24/24
f 24/23/23 6/25/25 25/26/26 48/24/24
f 25/68/26 5/27/27 23/22/22 48/69/24
f 13/1/1 2/76/7 23/22/22 49/28/28
f 23/22/22 5/27/27 26/29/29 49/28/28
f 26/29/29 10/2/2 13/1/1 49/28/28
f 17/10/10 11/9/9 27/30/30 50/31/31
f 27/30/30 6/25/25 24/23/23 50/31/31
f 24/23/23 2/7/7 17/10/10 50/31/31
f 28/32/32 9/33/33 29/34/34 51/35/35
f 29/34/34 3/36/36 30/75/37 51/35/35
f 30/75/37 4/73/38 28/32/32 51/35/35
f 31/39/39 12/40/40 32/41/41 52/42/42
f 32/41/41 4/38/38 30/37/37 52/42/42
f 30/37/37 3/74/36 31/39/39 52/42/42
f 25/26/26 6/25/25 33/43/43 53/44/44
f 33/43/43 3/74/36 34/67/45 53/44/44
f 34/45/45 5/27/27 25/68/26 53/66/44
f 29/34/34 9/33/33 35/46/46 54/47/47
f 35/46/46 5/27/27 34/45/45 54/47/47
f 34/45/45 3/36/36 29/34/34 54/47/47
f 36/48/48 12/40/40 31/39/39 55/49/49
f 31/39/39 3/74/36 33/43/43 55/49/49
f 33/43/43 6/25/25 36/48/48 55/49/49
f 19/14/14 8/13/13 37/50/50 56/63/51
f 37/64/50 4/38/38 38/52/52 56/51/51
f 38/52/52 7/16/16 19/65/14 56/51/51
f 32/41/41 12/40/40 39/53/53 57/54/54
f 39/53/53 7/16/16 38/52/52 57/54/54
f 38/52/52 4/38/38 32/41/41 57/54/54
f 37/50/50 8/13/13 40/55/55 58/56/56
f 40/55/55 9/33/33 28/32/32 58/56/56
f 28/32/32 4/73/38 37/50/50 58/56/56
f 35/46/46 9/33/33 41/57/57 59/58/58
f 41/57/57 10/2/2 26/29/29 59/58/58
f 26/29/29 5/27/27 35/46/46 59/58/58
f 27/30/30 11/9/9 42/59/59 60/60/60
f 42/59/59 12/40/40 36/48/48 60/60/60
f 36/48/48 6/25/25 27/30/30 60/60/60
f 39/53/53 12/40/40 42/59/59 61/61/61
f 42/59/59 11/9/9 21/18/18 61/61/61
f 21/18/18 7/16/16 39/53/53 61/61/61
f 22/20/20 10/2/2 41/57/57 62/62/62
f 41/57/57 9/33/33 40/55/55 62/62/62
f 40/55/55 8/13/13 22/20/20 62/62/62
