# This file uses centimeters as units for non-parametric coordinates.

mtllib moontest-02.mtl
g default
v 6.070595 0.868696 -0.178685
v 6.070595 0.868696 0.178685
v 5.492358 0.868696 0.178685
v 5.492358 0.868696 -0.178685
v 5.781476 0.690010 0.289119
v 5.781476 1.047381 0.289119
v 5.781476 1.047381 -0.289119
v 5.781476 0.690010 -0.289119
v 5.602791 0.579577 -0.000000
v 5.960162 0.579577 0.000000
v 5.960162 1.157814 -0.000000
v 5.602791 1.157814 0.000000
v 6.049959 0.702764 0.102551
v 6.049959 0.702764 -0.102551
v 6.113339 0.868696 0.000000
v 6.049959 1.034627 -0.102551
v 6.049959 1.034627 0.102551
v 5.947408 0.766144 -0.268483
v 5.781476 0.868696 -0.331863
v 5.947408 0.971247 -0.268483
v 5.884028 1.137179 -0.165932
v 5.884028 0.600213 -0.165932
v 5.947408 0.766144 0.268483
v 5.947408 0.971247 0.268483
v 5.781476 0.868696 0.331863
v 5.884028 0.600213 0.165932
v 5.884028 1.137179 0.165932
v 5.512994 0.702764 -0.102551
v 5.512994 0.702764 0.102551
v 5.449614 0.868696 0.000000
v 5.512994 1.034627 0.102551
v 5.512994 1.034627 -0.102551
v 5.615545 0.971247 0.268483
v 5.615545 0.766144 0.268483
v 5.678925 0.600213 0.165932
v 5.678925 1.137179 0.165932
v 5.615545 0.766144 -0.268483
v 5.615545 0.971247 -0.268483
v 5.678925 1.137179 -0.165932
v 5.678925 0.600213 -0.165932
v 5.781476 0.536833 0.000000
v 5.781476 1.200559 0.000000
v 6.090776 0.750554 0.000000
v 6.090776 0.986838 0.000000
v 5.899619 0.868696 -0.309300
v 5.972634 1.059853 -0.191158
v 5.972634 0.677538 -0.191158
v 5.899619 0.868696 0.309300
v 5.972634 0.677538 0.191158
v 5.972634 1.059853 0.191158
v 5.472177 0.750554 0.000000
v 5.472177 0.986838 0.000000
v 5.663334 0.868696 0.309300
v 5.590319 0.677538 0.191158
v 5.590319 1.059853 0.191158
v 5.663334 0.868696 -0.309300
v 5.590319 1.059853 -0.191158
v 5.590319 0.677538 -0.191158
v 5.781476 0.559396 0.118142
v 5.781476 1.177996 0.118142
v 5.781476 1.177996 -0.118142
v 5.781476 0.559396 -0.118142
vt 0.692101 0.398216
vt 0.104590 0.825538
vt 0.032956 0.885510
vt 0.616963 0.497027
vt 0.465739 0.562635
vt 0.567551 0.467079
vt 0.605152 0.332607
vt 0.453521 0.470243
vt 0.427440 0.382162
vt 0.517593 0.364526
vt 0.512093 0.433468
vt 0.360642 0.656212
vt 0.193227 0.994215
vt 0.219238 0.556952
vt 0.311301 0.583510
vt 0.266119 0.479600
vt 0.354919 0.542567
vt 0.351230 0.439198
vt 0.386528 0.483368
vt 0.140165 0.912635
vt 0.084449 0.934696
vt 0.087804 0.651076
vt 0.536084 0.243650
vt 0.552197 0.186037
vt 0.439174 0.194064
vt 0.486055 0.116712
vt 0.193227 0.656862
vt 0.084449 0.716380
vt 0.140165 0.738441
vt 0.442740 0.288210
vt 0.498229 0.299064
vt 0.013191 0.275447
vt 0.281865 0.825538
vt 0.353498 0.765566
vt 0.088329 0.176637
vt 0.239554 0.111028
vt 0.137741 0.206584
vt 0.100140 0.341056
vt 0.251772 0.203420
vt 0.277853 0.291501
vt 0.187700 0.309137
vt 0.193200 0.240196
vt 0.350374 0.131096
vt 0.393992 0.090154
vt 0.344651 0.017451
vt 0.246290 0.738441
vt 0.302006 0.716380
vt 0.354063 0.234465
vt 0.318765 0.190295
vt 0.298651 1.000000
vt 0.153095 0.487626
vt 0.169208 0.430013
vt 0.262553 0.385453
vt 0.207063 0.374599
vt 0.246290 0.912635
vt 0.302006 0.934696
vt 0.193227 0.825538
vt 0.193227 0.767677
vt 0.352646 0.336832
vt 0.383036 0.286689
vt 0.322256 0.386974
vt 0.193227 0.883399
vt 0.000000 0.389149
vt 0.353498 0.885510
vt 0.065813 0.477525
vt 0.235852 0.000000
vt 0.298651 0.651076
vt 0.141159 0.064305
vt 0.386454 0.825538
vt 0.705293 0.284515
vt 0.639480 0.196139
vt 0.032956 0.765566
vt 0.469441 0.673663
vt 0.087804 1.000000
vt 0.564134 0.609358
vt 0.000000 0.825538
vt 0.168787 0.640193
vt 0.536505 0.033470
vn 0.809017 -0.500000 0.309017
vn 0.525732 -0.850651 0.000000
vn 0.809017 -0.500000 -0.309017
vn 0.934172 -0.356824 -0.000000
vn 0.850651 -0.000000 -0.525731
vn 1.000000 -0.000000 -0.000000
vn 0.850651 0.000000 0.525731
vn 0.809017 0.500001 -0.309017
vn 0.525732 0.850651 -0.000000
vn 0.809017 0.500000 0.309017
vn 0.934172 0.356824 0.000000
vn 0.500000 -0.309017 -0.809017
vn 0.000000 -0.525731 -0.850651
vn 0.000000 -0.000000 -1.000000
vn 0.356822 -0.000000 -0.934173
vn 0.000000 0.525731 -0.850651
vn 0.500000 0.309017 -0.809017
vn 0.309017 0.809017 -0.500000
vn 0.577350 0.577350 -0.577350
vn 0.309017 -0.809017 -0.500000
vn 0.577351 -0.577350 -0.577351
vn 0.500000 -0.309017 0.809017
vn 0.500000 0.309017 0.809017
vn 0.356822 -0.000000 0.934172
vn 0.000000 0.525731 0.850651
vn 0.000000 -0.000000 1.000000
vn 0.000000 -0.525731 0.850651
vn 0.577351 -0.577350 0.577350
vn 0.309017 -0.809017 0.500000
vn 0.309017 0.809017 0.500001
vn 0.577350 0.577350 0.577351
vn -0.809017 -0.500001 -0.309016
vn -0.525732 -0.850651 0.000000
vn -0.809016 -0.500001 0.309016
vn -0.934171 -0.356826 -0.000000
vn -0.850651 -0.000000 0.525731
vn -1.000000 -0.000000 0.000000
vn -0.850651 -0.000000 -0.525731
vn -0.809016 0.500001 0.309016
vn -0.525731 0.850651 0.000000
vn -0.809016 0.500002 -0.309016
vn -0.934171 0.356826 0.000000
vn -0.500000 0.309017 0.809017
vn -0.356822 -0.000000 0.934172
vn -0.500000 -0.309017 0.809017
vn -0.309018 -0.809017 0.500001
vn -0.577351 -0.577349 0.577351
vn -0.309018 0.809016 0.500001
vn -0.577351 0.577349 0.577351
vn -0.500000 -0.309017 -0.809017
vn -0.356822 -0.000000 -0.934173
vn -0.500000 0.309017 -0.809017
vn -0.309017 0.809016 -0.500001
vn -0.577351 0.577350 -0.577351
vn -0.309018 -0.809016 -0.500001
vn -0.577351 -0.577349 -0.577351
vn -0.000000 -1.000000 -0.000000
vn 0.000000 -0.934172 0.356822
vn 0.000000 1.000000 0.000000
vn -0.000000 0.934172 0.356823
vn 0.000000 0.934172 -0.356823
vn 0.000000 -0.934172 -0.356822
s 1
g pSolid5
usemtl initialShadingGroup
f 13/72/1 10/2/2 14/3/3 43/76/4
f 14/75/3 1/5/5 15/6/6 43/4/4
f 15/6/6 2/7/7 13/1/1 43/4/4
f 16/8/8 11/9/9 17/10/10 44/11/11
f 17/10/10 2/7/7 15/6/6 44/11/11
f 15/6/6 1/5/5 16/8/8 44/11/11
f 18/12/12 8/77/13 19/14/14 45/15/15
f 19/14/14 7/16/16 20/17/17 45/15/15
f 20/17/17 1/5/5 18/12/12 45/15/15
f 20/17/17 7/16/16 21/18/18 46/19/19
f 21/18/18 11/9/9 16/8/8 46/19/19
f 16/8/8 1/5/5 20/17/17 46/19/19
f 14/3/3 10/2/2 22/20/20 47/21/21
f 22/20/20 8/13/13 18/74/12 47/21/21
f 18/12/12 1/5/5 14/75/3 47/73/21
f 23/71/22 2/7/7 24/23/23 48/24/24
f 24/23/23 6/25/25 25/26/26 48/24/24
f 25/26/26 5/78/27 23/71/22 48/24/24
f 13/1/1 2/7/7 23/71/22 49/70/28
f 23/22/22 5/27/27 26/29/29 49/28/28
f 26/29/29 10/2/2 13/72/1 49/28/28
f 17/10/10 11/9/9 27/30/30 50/31/31
f 27/30/30 6/25/25 24/23/23 50/31/31
f 24/23/23 2/7/7 17/10/10 50/31/31
f 28/64/32 9/33/33 29/34/34 51/69/35
f 29/68/34 3/36/36 30/37/37 51/35/35
f 30/37/37 4/38/38 28/32/32 51/35/35
f 31/39/39 12/40/40 32/41/41 52/42/42
f 32/41/41 4/38/38 30/37/37 52/42/42
f 30/37/37 3/36/36 31/39/39 52/42/42
f 25/26/26 6/25/25 33/43/43 53/44/44
f 33/43/43 3/36/36 34/45/45 53/44/44
f 34/45/45 5/78/27 25/26/26 53/44/44
f 29/34/34 9/33/33 35/46/46 54/47/47
f 35/46/46 5/27/27 34/67/45 54/47/47
f 34/45/45 3/36/36 29/68/34 54/66/47
f 36/48/48 12/40/40 31/39/39 55/49/49
f 31/39/39 3/36/36 33/43/43 55/49/49
f 33/43/43 6/25/25 36/48/48 55/49/49
f 19/14/14 8/77/13 37/65/50 56/51/51
f 37/65/50 4/38/38 38/52/52 56/51/51
f 38/52/52 7/16/16 19/14/14 56/51/51
f 32/41/41 12/40/40 39/53/53 57/54/54
f 39/53/53 7/16/16 38/52/52 57/54/54
f 38/52/52 4/38/38 32/41/41 57/54/54
f 37/50/50 8/13/13 40/55/55 58/56/56
f 40/55/55 9/33/33 28/64/32 58/56/56
f 28/32/32 4/38/38 37/65/50 58/63/56
f 35/46/46 9/33/33 41/57/57 59/58/58
f 41/57/57 10/2/2 26/29/29 59/58/58
f 26/29/29 5/27/27 35/46/46 59/58/58
f 27/30/30 11/9/9 42/59/59 60/60/60
f 42/59/59 12/40/40 36/48/48 60/60/60
f 36/48/48 6/25/25 27/30/30 60/60/60
f 39/53/53 12/40/40 42/59/59 61/61/61
f 42/59/59 11/9/9 21/18/18 61/61/61
f 21/18/18 7/16/16 39/53/53 61/61/61
f 22/20/20 10/2/2 41/57/57 62/62/62
f 41/57/57 9/33/33 40/55/55 62/62/62
f 40/55/55 8/13/13 22/20/20 62/62/62
