# This file uses centimeters as units for non-parametric coordinates.

mtllib pencil-01.mtl
g default
v 0.288399 4.191885 -0.093707
v 0.245327 4.191885 -0.178241
v 0.178241 4.191885 -0.245327
v 0.093707 4.191885 -0.288399
v 0.000000 4.191885 -0.303241
v -0.093707 4.191885 -0.288399
v -0.178241 4.191885 -0.245327
v -0.245327 4.191885 -0.178241
v -0.288399 4.191885 -0.093707
v -0.303241 4.191885 0.000000
v -0.288399 4.191885 0.093707
v -0.245327 4.191885 0.178241
v -0.178241 4.191885 0.245327
v -0.093707 4.191885 0.288399
v -0.000000 4.191885 0.303241
v 0.093707 4.191885 0.288399
v 0.178240 4.191885 0.245327
v 0.245327 4.191885 0.178240
v 0.288399 4.191885 0.093707
v 0.303241 4.191885 0.000000
v 0.288399 5.801061 -0.093707
v 0.245327 5.801061 -0.178241
v 0.178241 5.801061 -0.245327
v 0.093707 5.801061 -0.288399
v 0.000000 5.801061 -0.303241
v -0.093707 5.801061 -0.288399
v -0.178241 5.801061 -0.245327
v -0.245327 5.801061 -0.178241
v -0.288399 5.801061 -0.093707
v -0.303241 5.801061 0.000000
v -0.288399 5.801061 0.093707
v -0.245327 5.801061 0.178241
v -0.178241 5.801061 0.245327
v -0.093707 5.801061 0.288399
v -0.000000 5.801061 0.303241
v 0.093707 5.801061 0.288399
v 0.178240 5.801061 0.245327
v 0.245327 5.801061 0.178240
v 0.288399 5.801061 0.093707
v 0.303241 5.801061 0.000000
v 0.288399 4.009499 -0.093707
v 0.245327 4.009499 -0.178240
v 0.000000 4.009499 -0.000000
v 0.178241 4.009499 -0.245327
v 0.093707 4.009499 -0.288399
v 0.000000 4.009499 -0.303241
v -0.093707 4.009499 -0.288399
v -0.178241 4.009499 -0.245327
v -0.245327 4.009499 -0.178241
v -0.288399 4.009499 -0.093707
v -0.303241 4.009499 -0.000000
v -0.288399 4.009499 0.093707
v -0.245327 4.009499 0.178241
v -0.178241 4.009499 0.245327
v -0.093707 4.009499 0.288399
v -0.000000 4.009499 0.303241
v 0.093707 4.009499 0.288399
v 0.178240 4.009499 0.245327
v 0.245327 4.009499 0.178240
v 0.288399 4.009499 0.093707
v 0.303241 4.009499 -0.000000
v 0.000000 6.219857 0.000000
vt 0.648603 0.107966
vt 0.626409 0.064408
vt 0.591842 0.029841
vt 0.548284 0.007647
vt 0.500000 -0.000000
vt 0.451716 0.007647
vt 0.408159 0.029841
vt 0.373591 0.064409
vt 0.351397 0.107966
vt 0.343750 0.156250
vt 0.351397 0.204534
vt 0.373591 0.248091
vt 0.408159 0.282659
vt 0.451716 0.304853
vt 0.500000 0.312500
vt 0.548284 0.304853
vt 0.591841 0.282659
vt 0.626409 0.248091
vt 0.648603 0.204534
vt 0.656250 0.156250
vt 0.375000 0.312500
vt 0.387500 0.312500
vt 0.400000 0.312500
vt 0.412500 0.312500
vt 0.425000 0.312500
vt 0.437500 0.312500
vt 0.450000 0.312500
vt 0.462500 0.312500
vt 0.475000 0.312500
vt 0.487500 0.312500
vt 0.500000 0.312500
vt 0.512500 0.312500
vt 0.525000 0.312500
vt 0.537500 0.312500
vt 0.550000 0.312500
vt 0.562500 0.312500
vt 0.575000 0.312500
vt 0.587500 0.312500
vt 0.600000 0.312500
vt 0.612500 0.312500
vt 0.625000 0.312500
vt 0.375000 0.688440
vt 0.387500 0.688440
vt 0.400000 0.688440
vt 0.412500 0.688440
vt 0.425000 0.688440
vt 0.437500 0.688440
vt 0.450000 0.688440
vt 0.462500 0.688440
vt 0.475000 0.688440
vt 0.487500 0.688440
vt 0.500000 0.688440
vt 0.512500 0.688440
vt 0.525000 0.688440
vt 0.537500 0.688440
vt 0.550000 0.688440
vt 0.562500 0.688440
vt 0.575000 0.688440
vt 0.587500 0.688440
vt 0.600000 0.688440
vt 0.612500 0.688440
vt 0.625000 0.688440
vt 0.648603 0.795466
vt 0.626409 0.751908
vt 0.591842 0.717341
vt 0.548284 0.695147
vt 0.500000 0.687500
vt 0.451716 0.695147
vt 0.408159 0.717341
vt 0.373591 0.751909
vt 0.351397 0.795466
vt 0.343750 0.843750
vt 0.351397 0.892034
vt 0.373591 0.935591
vt 0.408159 0.970159
vt 0.451716 0.992353
vt 0.500000 1.000000
vt 0.548284 0.992353
vt 0.591841 0.970159
vt 0.626409 0.935591
vt 0.648603 0.892034
vt 0.656250 0.843750
vt 0.500000 0.150000
vt 0.499989 0.843646
vt 0.626409 0.064408
vt 0.648603 0.107966
vt 0.591842 0.029841
vt 0.548284 0.007647
vt 0.500000 -0.000000
vt 0.451716 0.007647
vt 0.408159 0.029841
vt 0.373591 0.064409
vt 0.351397 0.107966
vt 0.343750 0.156250
vt 0.351397 0.204534
vt 0.373591 0.248091
vt 0.408159 0.282659
vt 0.451716 0.304853
vt 0.500000 0.312500
vt 0.548284 0.304853
vt 0.591841 0.282659
vt 0.626409 0.248091
vt 0.648603 0.204534
vt 0.656250 0.156250
vn 0.951057 -0.000000 -0.309016
vn 0.809017 -0.000000 -0.587785
vn 0.806628 0.076795 -0.586050
vn 0.948248 0.076795 -0.308104
vn 0.587785 0.000000 -0.809017
vn 0.586049 0.076795 -0.806628
vn 0.309017 0.000000 -0.951057
vn 0.308104 0.076795 -0.948248
vn -0.000000 0.000000 -1.000000
vn 0.000000 0.076795 -0.997047
vn -0.309017 0.000000 -0.951056
vn -0.308105 0.076795 -0.948248
vn -0.587785 0.000000 -0.809017
vn -0.586050 0.076795 -0.806628
vn -0.809017 0.000000 -0.587785
vn -0.806628 0.076795 -0.586049
vn -0.951057 0.000000 -0.309017
vn -0.948248 0.076795 -0.308104
vn -1.000000 0.000000 0.000000
vn -0.997047 0.076795 0.000000
vn -0.951056 0.000000 0.309017
vn -0.948248 0.076795 0.308105
vn -0.809017 -0.000000 0.587785
vn -0.806628 0.076795 0.586049
vn -0.587785 -0.000000 0.809017
vn -0.586049 0.076795 0.806628
vn -0.309017 -0.000000 0.951057
vn -0.308104 0.076795 0.948248
vn 0.000000 0.000000 1.000000
vn 0.000000 0.076795 0.997047
vn 0.309017 0.000000 0.951056
vn 0.308104 0.076795 0.948248
vn 0.587785 0.000000 0.809017
vn 0.586049 0.076795 0.806628
vn 0.809017 0.000000 0.587785
vn 0.806628 0.076795 0.586049
vn 0.951057 -0.000000 0.309017
vn 0.948248 0.076795 0.308104
vn 1.000000 -0.000000 0.000001
vn 0.997047 0.076795 0.000001
vn 0.000000 -1.000000 0.000000
vn 0.000000 -1.000000 0.000000
vn -0.000000 -1.000000 -0.000000
vn 0.000000 -1.000000 0.000000
vn 0.000000 -1.000000 0.000000
vn -0.000000 -1.000000 0.000000
vn -0.000000 -1.000000 0.000000
vn -0.000000 -1.000000 0.000000
vn -0.000000 -1.000000 0.000000
vn -0.000000 -1.000000 0.000000
vn -0.000000 -1.000000 0.000000
vn -0.000000 -1.000000 0.000000
vn -0.000000 -1.000000 0.000000
vn -0.000000 -1.000000 0.000000
vn -0.000000 -1.000000 -0.000000
vn 0.000000 -1.000000 -0.000000
vn 0.000000 -1.000000 0.000000
vn 0.000000 -1.000000 -0.000000
vn 0.000000 -1.000000 -0.000001
vn 0.000000 -1.000000 0.000000
vn 0.000000 -1.000000 0.000000
vn 0.951057 -0.000000 -0.309016
vn 0.809017 -0.000000 -0.587785
vn 0.587785 0.000000 -0.809017
vn 0.309017 0.000000 -0.951057
vn -0.000000 0.000000 -1.000000
vn -0.309017 0.000000 -0.951056
vn -0.587785 0.000000 -0.809017
vn -0.809017 0.000000 -0.587785
vn -0.951056 0.000000 -0.309017
vn -1.000000 0.000000 0.000000
vn -0.951056 0.000000 0.309017
vn -0.809017 -0.000000 0.587785
vn -0.587785 -0.000000 0.809017
vn -0.309017 -0.000000 0.951056
vn 0.000000 0.000000 1.000000
vn 0.309017 0.000000 0.951057
vn 0.587785 0.000000 0.809017
vn 0.809017 0.000000 0.587785
vn 0.951057 -0.000000 0.309017
vn 1.000000 -0.000000 0.000001
vn -0.000000 1.000000 -0.000000
s 1
g pCylinder1
usemtl initialShadingGroup
f 1/21/1 2/22/2 22/43/3 21/42/4
f 2/22/2 3/23/5 23/44/6 22/43/3
f 3/23/5 4/24/7 24/45/8 23/44/6
f 4/24/7 5/25/9 25/46/10 24/45/8
f 5/25/9 6/26/11 26/47/12 25/46/10
f 6/26/11 7/27/13 27/48/14 26/47/12
f 7/27/13 8/28/15 28/49/16 27/48/14
f 8/28/15 9/29/17 29/50/18 28/49/16
f 9/29/17 10/30/19 30/51/20 29/50/18
f 10/30/19 11/31/21 31/52/22 30/51/20
f 11/31/21 12/32/23 32/53/24 31/52/22
f 12/32/23 13/33/25 33/54/26 32/53/24
f 13/33/25 14/34/27 34/55/28 33/54/26
f 14/34/27 15/35/29 35/56/30 34/55/28
f 15/35/29 16/36/31 36/57/32 35/56/30
f 16/36/31 17/37/33 37/58/34 36/57/32
f 17/37/33 18/38/35 38/59/36 37/58/34
f 18/38/35 19/39/37 39/60/38 38/59/36
f 19/39/37 20/40/39 40/61/40 39/60/38
f 20/40/39 1/41/1 21/62/4 40/61/40
s 2
f 42/85/41 41/86/42 43/83/43
f 44/87/44 42/85/41 43/83/43
f 45/88/45 44/87/44 43/83/43
f 46/89/46 45/88/45 43/83/43
f 47/90/47 46/89/46 43/83/43
f 48/91/48 47/90/47 43/83/43
f 49/92/49 48/91/48 43/83/43
f 50/93/50 49/92/49 43/83/43
f 51/94/51 50/93/50 43/83/43
f 52/95/52 51/94/51 43/83/43
f 53/96/53 52/95/52 43/83/43
f 54/97/54 53/96/53 43/83/43
f 55/98/55 54/97/54 43/83/43
f 56/99/56 55/98/55 43/83/43
f 57/100/57 56/99/56 43/83/43
f 58/101/58 57/100/57 43/83/43
f 59/102/59 58/101/58 43/83/43
f 60/103/60 59/102/59 43/83/43
f 61/104/61 60/103/60 43/83/43
f 41/86/42 61/104/61 43/83/43
s 1
f 2/2/2 1/1/1 41/86/62 42/85/63
f 3/3/5 2/2/2 42/85/63 44/87/64
f 4/4/7 3/3/5 44/87/64 45/88/65
f 5/5/9 4/4/7 45/88/65 46/89/66
f 6/6/11 5/5/9 46/89/66 47/90/67
f 7/7/13 6/6/11 47/90/67 48/91/68
f 8/8/15 7/7/13 48/91/68 49/92/69
f 9/9/17 8/8/15 49/92/69 50/93/70
f 10/10/19 9/9/17 50/93/70 51/94/71
f 11/11/21 10/10/19 51/94/71 52/95/72
f 12/12/23 11/11/21 52/95/72 53/96/73
f 13/13/25 12/12/23 53/96/73 54/97/74
f 14/14/27 13/13/25 54/97/74 55/98/75
f 15/15/29 14/14/27 55/98/75 56/99/76
f 16/16/31 15/15/29 56/99/76 57/100/77
f 17/17/33 16/16/31 57/100/77 58/101/78
f 18/18/35 17/17/33 58/101/78 59/102/79
f 19/19/37 18/18/35 59/102/79 60/103/80
f 20/20/39 19/19/37 60/103/80 61/104/81
f 1/1/1 20/20/39 61/104/81 41/86/62
f 21/81/4 22/80/3 62/84/82
f 22/80/3 23/79/6 62/84/82
f 23/79/6 24/78/8 62/84/82
f 24/78/8 25/77/10 62/84/82
f 25/77/10 26/76/12 62/84/82
f 26/76/12 27/75/14 62/84/82
f 27/75/14 28/74/16 62/84/82
f 28/74/16 29/73/18 62/84/82
f 29/73/18 30/72/20 62/84/82
f 30/72/20 31/71/22 62/84/82
f 31/71/22 32/70/24 62/84/82
f 32/70/24 33/69/26 62/84/82
f 33/69/26 34/68/28 62/84/82
f 34/68/28 35/67/30 62/84/82
f 35/67/30 36/66/32 62/84/82
f 36/66/32 37/65/34 62/84/82
f 37/65/34 38/64/36 62/84/82
f 38/64/36 39/63/38 62/84/82
f 39/63/38 40/82/40 62/84/82
f 40/82/40 21/81/4 62/84/82
