# This file uses centimeters as units for non-parametric coordinates.

mtllib rock-01.mtl
g default
v 81.587261 5.453077 -20.431708
v 83.805207 6.971928 -18.126017
v 88.728980 7.745788 -21.454128
v 86.028584 6.720922 -18.121224
v 87.445589 5.493567 -19.929091
v 82.385457 8.055222 -20.226804
v 87.198475 9.083609 -19.686793
v 84.081512 8.268058 -26.977078
v 83.571577 6.481012 -28.091453
v 86.085520 6.144094 -28.473421
v 86.344735 7.638535 -27.627960
v 87.894536 6.919731 -26.578168
v 81.849087 7.183309 -25.843657
v 83.687309 5.480606 -26.142243
v 85.989726 5.491710 -26.044097
v 87.516789 9.921055 -23.235177
v 81.752781 6.651552 -22.726088
v 83.447887 9.784174 -24.462815
vt 0.410315 0.950506
vt 0.375000 0.799494
vt 0.385568 0.035315
vt 0.445630 0.125000
vt 0.625000 0.928744
vt 0.554370 0.950506
vt 0.625000 0.799494
vt 0.696256 0.078466
vt 0.365387 0.269764
vt 0.410315 0.450506
vt 0.554370 0.125000
vt 0.617954 0.259452
vt 0.375000 0.570630
vt 0.375000 0.679369
vt 0.554370 0.450506
vt 0.625000 0.625000
vt 0.445630 0.625000
vt 0.554370 0.625000
vt 0.554370 0.799494
vt 0.445630 0.799494
vt 0.825506 0.125000
vt 0.174494 0.070630
vt 0.174494 0.179370
vt 0.554370 0.000000
vt 0.625000 0.450506
vt 0.589685 0.379229
vt 0.754229 0.179370
vt 0.375000 0.875000
vt 0.250000 0.070630
vt 0.383878 0.344151
vt 0.286822 0.232561
vn -0.766925 -0.599568 -0.228789
vn -0.766925 -0.599568 -0.228789
vn -0.766925 -0.599568 -0.228789
vn -0.766925 -0.599568 -0.228789
vn -0.056779 -0.825210 0.561964
vn -0.056778 -0.825210 0.561964
vn -0.056779 -0.825210 0.561964
vn -0.056779 -0.825210 0.561964
vn 0.724615 -0.682235 -0.097407
vn 0.724615 -0.682235 -0.097407
vn 0.724615 -0.682235 -0.097407
vn 0.724615 -0.682235 -0.097407
vn 0.775315 0.010747 0.631483
vn 0.775315 0.010747 0.631483
vn 0.775315 0.010747 0.631483
vn 0.775315 0.010747 0.631483
vn -0.132228 0.717756 0.683625
vn -0.132228 0.717756 0.683624
vn -0.132228 0.717756 0.683624
vn -0.132228 0.717756 0.683624
vn 0.616561 0.619204 -0.486250
vn 0.616561 0.619204 -0.486250
vn 0.616561 0.619204 -0.486250
vn -0.574741 0.544788 -0.610638
vn -0.574741 0.544788 -0.610638
vn -0.574741 0.544788 -0.610638
vn -0.077213 0.524499 -0.847902
vn -0.077213 0.524499 -0.847902
vn -0.077213 0.524499 -0.847903
vn -0.077213 0.524499 -0.847902
vn -0.083792 -0.932401 -0.351577
vn -0.083792 -0.932401 -0.351577
vn -0.083792 -0.932401 -0.351577
vn -0.083792 -0.932401 -0.351577
vn -0.179327 0.943340 0.279197
vn -0.179327 0.943340 0.279197
vn -0.179327 0.943340 0.279197
vn -0.179327 0.943340 0.279197
vn 0.006456 -0.999978 -0.001819
vn 0.006456 -0.999978 -0.001819
vn 0.006456 -0.999978 -0.001819
vn 0.006456 -0.999978 -0.001819
vn 0.770059 0.602015 0.211159
vn 0.770059 0.602014 0.211159
vn 0.770059 0.602014 0.211159
vn 0.626308 0.298734 -0.720067
vn 0.626308 0.298734 -0.720067
vn 0.626308 0.298734 -0.720067
vn -0.673283 -0.673284 -0.305578
vn -0.673283 -0.673284 -0.305578
vn -0.673283 -0.673284 -0.305578
vn 0.552500 -0.810192 -0.195787
vn 0.552500 -0.810192 -0.195787
vn 0.552500 -0.810192 -0.195787
vn -0.781833 0.589069 -0.204292
vn -0.781832 0.589069 -0.204292
vn -0.781832 0.589069 -0.204292
vn -0.781833 0.589069 -0.204292
vn 0.111682 0.867045 -0.485551
vn 0.111682 0.867045 -0.485551
vn 0.111682 0.867045 -0.485551
vn 0.111682 0.867045 -0.485551
vn -0.891916 0.243591 0.380984
vn -0.891916 0.243591 0.380984
vn -0.891916 0.243591 0.380984
vn -0.891916 0.243591 0.380984
vn 0.916670 0.343287 -0.204621
vn 0.916670 0.343287 -0.204621
vn 0.916670 0.343287 -0.204621
vn -0.886820 0.460839 -0.034328
vn -0.886820 0.460839 -0.034329
vn -0.886820 0.460839 -0.034328
s off
g pCube1
usemtl phong7SG
f 14/20/1 1/1/2 17/28/3 13/2/4
f 2/4/5 1/3/6 5/24/7 4/11/8
f 3/5/9 5/6/10 15/19/11 12/7/12
f 3/8/13 7/12/14 4/11/15 5/24/16
f 6/9/17 2/4/18 4/11/19 7/12/20
f 16/26/21 12/25/22 11/15/23
f 8/13/24 9/17/25 13/14/26
f 9/17/27 8/10/28 11/15/29 10/18/30
f 14/20/31 9/17/32 10/18/33 15/19/34
f 16/26/35 18/30/36 6/9/37 7/12/38
f 5/6/39 1/1/40 14/20/41 15/19/42
f 3/8/43 16/27/44 7/12/45
f 10/18/46 11/15/47 12/25/48
f 13/14/49 9/17/50 14/20/51
f 15/19/52 10/18/53 12/16/54
f 8/23/55 13/22/56 17/29/57 18/31/58
f 16/26/59 11/15/60 8/10/61 18/30/62
f 1/3/63 2/4/64 6/9/65 17/29/66
f 12/21/67 16/27/68 3/8/69
f 17/29/70 6/9/71 18/31/72
